<svg width="42" height="42" viewBox="0 0 42 42" fill="none" xmlns="http://www.w3.org/2000/svg">
<g opacity="0.7">
<circle cx="21" cy="21" r="21" fill="black"/>
<path d="M18.8343 32.3801L28.337 22.5906C28.5471 22.3785 28.7138 22.1261 28.8276 21.848C28.9414 21.57 29 21.2717 29 20.9705C29 20.6692 28.9414 20.371 28.8276 20.0929C28.7138 19.8148 28.5471 19.5624 28.337 19.3503L18.8343 9.67499C18.6259 9.46111 18.378 9.29134 18.1049 9.17549C17.8318 9.05964 17.5389 9 17.243 9C16.9471 9 16.6542 9.05964 16.3811 9.17549C16.108 9.29134 15.8601 9.46111 15.6517 9.67499C15.2343 10.1025 15 10.6809 15 11.2837C15 11.8866 15.2343 12.4649 15.6517 12.8925L23.5857 20.9705L15.6517 29.0485C15.2377 29.4735 15.0043 30.0472 15.0018 30.6458C15.0001 30.9461 15.0566 31.2438 15.1681 31.5218C15.2797 31.7999 15.444 32.0527 15.6517 32.266C15.8526 32.4875 16.0946 32.6663 16.3637 32.792C16.6328 32.9178 16.9237 32.988 17.2196 32.9986C17.5156 33.0092 17.8106 32.96 18.0877 32.8538C18.3649 32.7477 18.6186 32.5866 18.8343 32.3801Z" fill="white"/>
</g>
</svg>
