<svg width="42" height="42" viewBox="0 0 42 42" fill="none" xmlns="http://www.w3.org/2000/svg">
<g opacity="0.7">
<circle cx="21" cy="21" r="21" transform="matrix(-1 0 0 1 42 0)" fill="black"/>
<path d="M23.1657 32.3801L13.663 22.5906C13.4529 22.3785 13.2862 22.1261 13.1724 21.848C13.0586 21.57 13 21.2717 13 20.9705C13 20.6692 13.0586 20.371 13.1724 20.0929C13.2862 19.8148 13.4529 19.5624 13.663 19.3503L23.1657 9.67499C23.3741 9.46111 23.622 9.29134 23.8951 9.17549C24.1682 9.05964 24.4611 9 24.757 9C25.0529 9 25.3458 9.05964 25.6189 9.17549C25.892 9.29134 26.1399 9.46111 26.3483 9.67499C26.7657 10.1025 27 10.6809 27 11.2837C27 11.8866 26.7657 12.4649 26.3483 12.8925L18.4143 20.9705L26.3483 29.0485C26.7623 29.4735 26.9957 30.0472 26.9982 30.6458C26.9999 30.9461 26.9434 31.2438 26.8319 31.5218C26.7203 31.7999 26.556 32.0527 26.3483 32.266C26.1474 32.4875 25.9054 32.6663 25.6363 32.792C25.3672 32.9178 25.0763 32.988 24.7804 32.9986C24.4844 33.0092 24.1894 32.96 23.9123 32.8538C23.6351 32.7477 23.3814 32.5866 23.1657 32.3801Z" fill="white"/>
</g>
</svg>
